<?xml version="1.0" encoding="utf-8"?>
<!-- Generator: Adobe Illustrator 24.3.0, SVG Export Plug-In . SVG Version: 6.00 Build 0)  -->
<svg version="1.1" id="Layer_1" xmlns="http://www.w3.org/2000/svg" xmlns:xlink="http://www.w3.org/1999/xlink" x="0px" y="0px"
	 viewBox="0 0 48.88 47.77" style="enable-background:new 0 0 48.88 47.77;" xml:space="preserve">
<style type="text/css">
	.st0{fill:#00A79D;}
	.st1{opacity:0.3;fill:#2FA3DC;enable-background:new    ;}
	.st2{fill:#2FA3DC;}
</style>
<g>
	<path class="st0" d="M0.02,24.98c0,0.04,0,0.09,0,0.13c-0.02-0.03-0.03-0.06-0.02-0.1C0.01,25,0.01,24.99,0.02,24.98z"/>
	<path class="st0" d="M0.02,22.79C0.01,22.78,0,22.76,0,22.73c0-0.02,0.01-0.04,0.02-0.06C0.02,22.71,0.02,22.75,0.02,22.79z"/>
	<path class="st1" d="M36.65,2.23C33.3,0.74,29.51,0,25.26,0c-3.63,0-6.99,0.58-10.07,1.74C12.11,2.9,9.44,4.55,7.19,6.69
		c-2.25,2.14-4.01,4.67-5.28,7.58c-1.12,2.57-1.75,5.37-1.88,8.4c0.02-0.03,0.04-0.05,0.06-0.06c0.12-0.08,0.25-0.14,0.38-0.21
		c4.47-2.24,8.93-4.51,13.28-6.98c1.37-0.78,2.74-1.58,4.05-2.45c0.25-0.16,0.44-0.19,0.63-0.09c0.7-0.47,1.47-0.87,2.3-1.2
		c1.58-0.61,3.3-0.92,5.18-0.92c2.19,0,4.17,0.46,5.94,1.38c1.77,0.92,3.4,2.25,4.89,4l8.27-7.48C42.78,5.86,40,3.72,36.65,2.23z
		 M36.75,31.63c-1.49,1.75-3.12,3.08-4.89,4c-1.77,0.92-3.75,1.38-5.94,1.38c-1.88,0-3.61-0.31-5.18-0.92
		c-0.83-0.32-1.6-0.72-2.3-1.2c-0.17,0.1-0.35,0.08-0.58-0.06c-4.28-2.75-8.8-5.09-13.32-7.41C3.13,26.7,1.72,26,0.32,25.28
		c-0.08-0.04-0.16-0.08-0.24-0.13c-0.02-0.01-0.04-0.03-0.05-0.04c0.13,3.03,0.76,5.82,1.88,8.39c1.27,2.91,3.03,5.44,5.28,7.58
		c2.25,2.14,4.92,3.8,8.01,4.95c3.08,1.16,6.44,1.74,10.07,1.74c4.24,0,8.04-0.75,11.38-2.26c3.35-1.51,6.14-3.64,8.37-6.4
		L36.75,31.63z"/>
	<g>
		<path class="st2" d="M48.74,30.9c-0.12,0.1-0.26,0.07-0.39,0.06c-1.72-0.14-3.44-0.28-5.16-0.42c-3.12-0.26-6.24-0.51-9.36-0.77
			c-0.97-0.08-0.88,0.01-0.89-0.93c0-3.42,0-6.85,0-10.27c0-0.59,0-0.59,0.59-0.63c4.96-0.37,9.92-0.73,14.88-1.1
			c0.33-0.02,0.45,0.06,0.45,0.4c-0.02,4.43-0.04,8.86-0.06,13.29C48.82,30.66,48.83,30.79,48.74,30.9z"/>
		<path class="st2" d="M30.63,28.06c0,0.33-0.09,0.47-0.45,0.48c-2.94,0.06-5.5,1.13-7.81,2.89c-1.32,1.01-2.57,2.09-3.72,3.29
			c-0.07,0.08-0.14,0.13-0.21,0.18c-0.17,0.1-0.35,0.08-0.58-0.06c-4.28-2.75-8.8-5.09-13.32-7.41C3.13,26.7,1.72,26,0.32,25.28
			c-0.08-0.04-0.16-0.08-0.24-0.13c-0.02-0.01-0.04-0.03-0.05-0.04c0-0.04,0-0.09,0-0.13c0.02-0.04,0.07-0.04,0.11-0.05
			c0.08-0.01,0.17-0.01,0.25-0.01c4.26,0,8.52,0,12.77,0c0.21,0,0.42,0,0.63,0c0.33,0,0.56,0.09,0.78,0.36
			c0.81,0.98,2.25,1.07,3.16,0.23c0.92-0.85,0.95-2.29,0.07-3.16c-0.92-0.9-2.38-0.84-3.21,0.15c-0.22,0.26-0.44,0.37-0.78,0.37
			c-0.21,0-0.43,0-0.64,0c-4.24-0.01-8.49,0-12.73,0c-0.09,0-0.19,0-0.28-0.01c-0.05,0-0.09-0.01-0.12-0.05c0-0.04,0-0.08,0-0.12
			c0.02-0.03,0.04-0.05,0.06-0.06c0.12-0.08,0.25-0.14,0.38-0.21c4.47-2.24,8.93-4.51,13.28-6.98c1.37-0.78,2.74-1.58,4.05-2.45
			c0.25-0.16,0.44-0.19,0.63-0.09c0.08,0.04,0.15,0.11,0.23,0.19c1.46,1.52,3.04,2.88,4.8,4.04c2.03,1.34,4.26,2.08,6.7,2.13
			c0.25,0,0.46,0.21,0.46,0.47C30.62,22.48,30.62,25.27,30.63,28.06z"/>
	</g>
</g>
</svg>
